<svg xmlns="http://www.w3.org/2000/svg" viewBox="0 0 1920 1080"><filter id="b"><feGaussianBlur stdDeviation="12" /></filter><path fill="#787c7d" d="M0 0h1920v1080H0z"/><g filter="url(#b)" transform="matrix(7.5 0 0 7.5 3.8 3.8)" fill-opacity=".5"><ellipse fill="#c9c6c5" rx="1" ry="1" transform="matrix(-32.18574 65.41005 -45.55137 -22.41405 201.6 18.3)"/><ellipse fill="#000002" rx="1" ry="1" transform="rotate(-81.2 110.9 -40.6) scale(41.85289 15.32993)"/><ellipse fill="#292524" rx="1" ry="1" transform="matrix(33.14572 -5.963 12.8507 71.4315 0 58.4)"/><ellipse fill="#cdc9c8" rx="1" ry="1" transform="rotate(71.8 -60 125) scale(28.54985 32.3077)"/><ellipse fill="#c3c3c4" rx="1" ry="1" transform="matrix(13.74732 9.13302 -33.3732 50.2344 107.5 42.2)"/><ellipse fill="#3a3b37" cx="216" cy="143" rx="86" ry="23"/><path fill="#005094" d="M111 72l22 22-22 22-22-22z"/><ellipse fill="#f4f4f4" rx="1" ry="1" transform="matrix(53.7218 .43584 -.09018 11.11577 185.4 3.2)"/></g></svg>