<svg xmlns="http://www.w3.org/2000/svg" viewBox="0 0 1920 1080"><filter id="b"><feGaussianBlur stdDeviation="12" /></filter><path fill="#0a0b0f" d="M0 0h1920v1080H0z"/><g filter="url(#b)" transform="matrix(7.5 0 0 7.5 3.8 3.8)" fill-opacity=".5"><ellipse fill="#3c435d" rx="1" ry="1" transform="matrix(-26.9189 9.65831 -25.78314 -71.8608 156.1 89.2)"/><ellipse fill="#536384" rx="1" ry="1" transform="matrix(-11.37597 -2.41804 4.86683 -22.89663 163.6 108.8)"/><path d="M142-2L35 159-16-5z"/><path fill="#3a2b2d" d="M110 69h34v40h-34z"/><ellipse cx="255" cy="75" rx="69" ry="69"/><ellipse fill="#0b1225" rx="1" ry="1" transform="rotate(86.5 25.8 160.2) scale(34.38239 13.95841)"/><ellipse fill="#545047" rx="1" ry="1" transform="matrix(3.81366 -4.73246 7.46743 6.01764 246.3 0)"/><ellipse fill="#2d3b5b" cx="174" cy="76" rx="14" ry="14"/></g></svg>