<svg xmlns="http://www.w3.org/2000/svg" viewBox="0 0 1920 1080"><filter id="b"><feGaussianBlur stdDeviation="12" /></filter><path fill="#528fa7" d="M0 0h1920v1080H0z"/><g filter="url(#b)" transform="matrix(7.5 0 0 7.5 3.8 3.8)" fill-opacity=".5"><ellipse fill="#a6e4ff" cx="232" cy="16" rx="105" ry="97"/><ellipse fill="#003c3c" cx="93" cy="143" rx="96" ry="96"/><path fill="#eaffff" d="M11 14l22 52 77-82z"/><ellipse fill="#c2e6e8" cx="124" cy="69" rx="18" ry="18"/><ellipse fill="#0064ff" rx="1" ry="1" transform="matrix(-5.53203 31.69707 -43.947 -7.66998 241.9 6.3)"/><ellipse fill="#0b3a4c" rx="1" ry="1" transform="matrix(6.01435 18.7325 -30.45363 9.7776 88.7 35.4)"/><ellipse fill="#b7e5ff" rx="1" ry="1" transform="matrix(52.2587 74.35661 -24.8845 17.48912 153.6 14.9)"/><ellipse fill="#8f9e90" rx="1" ry="1" transform="matrix(41.92316 -5.96655 2.43471 17.10716 129 92.8)"/></g></svg>