<svg xmlns="http://www.w3.org/2000/svg" viewBox="0 0 1920 1080"><filter id="b"><feGaussianBlur stdDeviation="12" /></filter><path fill="#434a17" d="M0 0h1920v1080H0z"/><g filter="url(#b)" transform="matrix(7.5 0 0 7.5 3.8 3.8)" fill-opacity=".5"><ellipse fill="#fbeea0" rx="1" ry="1" transform="matrix(-22.42065 2.00099 -4.13129 -46.29014 48.8 27)"/><ellipse fill="#89a33e" cx="89" cy="101" rx="38" ry="38"/><ellipse fill="#171b00" rx="1" ry="1" transform="rotate(96.6 75.2 120.4) scale(170.08694 66.17893)"/><ellipse fill="#101800" rx="1" ry="1" transform="matrix(-30.75985 55.49224 -20.81905 -11.54019 116.8 24.8)"/><ellipse fill="#7b7e2f" cx="227" cy="78" rx="22" ry="28"/><ellipse fill="#bedfcf" rx="1" ry="1" transform="matrix(17.01003 -25.0295 10.73565 7.29594 61.4 3)"/><path fill="#fdffa7" d="M71 85h12v24H71z"/><path fill="#d5eb68" d="M112 76h17v34h-17z"/></g></svg>