<svg xmlns="http://www.w3.org/2000/svg" viewBox="0 0 1920 1080"><filter id="b"><feGaussianBlur stdDeviation="12" /></filter><path fill="#a47741" d="M0 0h1920v1080H0z"/><g filter="url(#b)" transform="matrix(7.5 0 0 7.5 3.8 3.8)" fill-opacity=".5"><ellipse fill="#140000" rx="1" ry="1" transform="rotate(-115.3 88.6 25.7) scale(106.96107 31.00251)"/><ellipse fill="#ffeb9a" rx="1" ry="1" transform="rotate(173.6 87.2 35.1) scale(70.14488 34.70043)"/><path fill="#ffc363" d="M68.6 53.7l15 37.1-48.2 19.5-15-37.1z"/><path d="M172.5 148.8L91.7 143l1.8-25.9 80.8 5.7zM2 44h18v43H2z"/><ellipse fill="#240006" rx="1" ry="1" transform="matrix(44.92502 20.33049 -2.74154 6.05808 122.6 45.9)"/><ellipse fill="#ffec89" rx="1" ry="1" transform="matrix(5.09356 -13.66481 33.32958 12.4236 40.2 120.8)"/><ellipse fill="#fcc373" cx="147" cy="90" rx="36" ry="30"/></g></svg>