<svg xmlns="http://www.w3.org/2000/svg" viewBox="0 0 1920 1080"><filter id="b"><feGaussianBlur stdDeviation="12" /></filter><path fill="#596c56" d="M0 0h1920v1080H0z"/><g filter="url(#b)" transform="matrix(7.5 0 0 7.5 3.8 3.8)" fill-opacity=".5"><ellipse fill="#fff" rx="1" ry="1" transform="matrix(-1.04057 -24.82713 57.112 -2.3937 100.3 3.4)"/><ellipse fill="#e6ffea" rx="1" ry="1" transform="matrix(17.25226 -1.2064 5.22538 74.72642 197.8 35.3)"/><ellipse fill="#071b0f" cx="9" cy="93" rx="86" ry="86"/><ellipse fill="#fff" rx="1" ry="1" transform="matrix(.58836 14.64887 -44.29842 1.7792 196.6 3.5)"/><ellipse fill="#edffff" cx="102" cy="2" rx="20" ry="60"/><ellipse fill="#662000" rx="1" ry="1" transform="matrix(-1.45495 40.48152 -30.247 -1.0871 145.1 53.7)"/><ellipse fill="#78b6a7" cx="42" cy="67" rx="12" ry="24"/><path fill="#a0d5ba" d="M179 123l17-17-53-61z"/></g></svg>