<svg xmlns="http://www.w3.org/2000/svg" viewBox="0 0 1920 1080"><filter id="b"><feGaussianBlur stdDeviation="12" /></filter><path fill="#2c4342" d="M0 0h1920v1080H0z"/><g filter="url(#b)" transform="matrix(7.5 0 0 7.5 3.8 3.8)" fill-opacity=".5"><ellipse fill="#8cbfc8" cx="192" cy="16" rx="25" ry="37"/><path fill="#87bebe" d="M100.6 50.7L81 48.2 82.7 67l18 48.6z"/><ellipse fill="#0e1a18" rx="1" ry="1" transform="matrix(1.822 157.53403 -38.1986 .4418 27.5 69.6)"/><ellipse fill="#436166" rx="1" ry="1" transform="matrix(-30.74265 -4.42447 8.61682 -59.87248 160.7 21.7)"/><ellipse fill="#c9eff0" rx="1" ry="1" transform="matrix(8.92778 -10.68933 5.73757 4.79205 202.6 32.3)"/><ellipse fill="#0d1312" rx="1" ry="1" transform="rotate(60.4 -18.3 195.3) scale(36.70054 18.14686)"/><ellipse fill="#0b1819" rx="1" ry="1" transform="rotate(-6.9 879.6 -2043.7) scale(25.92323 60.0207)"/><ellipse fill="#3e5f61" rx="1" ry="1" transform="matrix(-21.55972 -11.36715 18.34815 -34.80037 114.7 87.8)"/></g></svg>