<svg xmlns="http://www.w3.org/2000/svg" viewBox="0 0 1920 1080"><filter id="b"><feGaussianBlur stdDeviation="12" /></filter><path fill="#59664f" d="M0 0h1920v1080H0z"/><g filter="url(#b)" transform="matrix(7.5 0 0 7.5 3.8 3.8)" fill-opacity=".5"><ellipse fill="#eadee4" rx="1" ry="1" transform="rotate(44.3 -45.4 166.8) scale(39.52363 75.25379)"/><ellipse fill="#000d00" rx="1" ry="1" transform="rotate(-65.7 26.9 8.1) scale(120.65562 65.98431)"/><ellipse cx="198" cy="10" rx="46" ry="46"/><ellipse rx="1" ry="1" transform="matrix(10.41533 3.55601 -8.51265 24.93299 105.7 26.7)"/><path fill="#cccdc5" d="M142 25h19v117h-19z"/><ellipse cx="171" cy="59" rx="11" ry="42"/><ellipse fill="#efebec" rx="1" ry="1" transform="matrix(37.27363 -28.57909 9.69119 12.63951 82.3 77.2)"/><ellipse fill="#193400" rx="1" ry="1" transform="rotate(70.9 26.6 232.3) scale(23.04945 58.65111)"/></g></svg>