<svg xmlns="http://www.w3.org/2000/svg" viewBox="0 0 1920 1080"><filter id="b"><feGaussianBlur stdDeviation="12" /></filter><path fill="#ae9d8a" d="M0 0h1920v1080H0z"/><g filter="url(#b)" transform="matrix(7.5 0 0 7.5 3.8 3.8)" fill-opacity=".5"><ellipse rx="1" ry="1" transform="matrix(5.9283 57.20061 -17.19672 1.78228 177 69.4)"/><ellipse fill="#fff" rx="1" ry="1" transform="matrix(31.71426 4.72143 -19.66195 132.07094 238.6 106.5)"/><ellipse rx="1" ry="1" transform="matrix(9.18546 8.50583 -25.04538 27.04655 156.7 128.8)"/><ellipse rx="1" ry="1" transform="matrix(-11.28327 -7.7838 21.46333 -31.11287 8 35.3)"/><ellipse fill="#fffff1" cx="145" cy="77" rx="21" ry="38"/><ellipse fill="#020500" rx="1" ry="1" transform="rotate(-127.6 88.4 -23.8) scale(27.26143 14.82745)"/><ellipse fill="#f8e0cc" cx="34" cy="78" rx="27" ry="39"/><ellipse fill="#151c09" rx="1" ry="1" transform="matrix(5.01952 -7.85288 46.51574 29.73264 28.5 126.7)"/></g></svg>