<svg xmlns="http://www.w3.org/2000/svg" viewBox="0 0 1920 1080"><filter id="b"><feGaussianBlur stdDeviation="12" /></filter><path fill="#66585a" d="M0 0h1920v1080H0z"/><g filter="url(#b)" transform="matrix(7.5 0 0 7.5 3.8 3.8)" fill-opacity=".5"><ellipse fill="#ffe6c2" cx="136" cy="19" rx="77" ry="37"/><ellipse fill="#020302" rx="1" ry="1" transform="matrix(-54.05143 72.51556 -47.60022 -35.4801 214.5 103.8)"/><ellipse fill="#b69fb3" rx="1" ry="1" transform="matrix(35.40108 27.1642 -11.62975 15.15619 118.1 81.3)"/><ellipse fill="#ffd3a6" rx="1" ry="1" transform="matrix(18.22505 25.33335 -50.14428 36.07428 179.6 3.8)"/><ellipse fill="#262738" rx="1" ry="1" transform="matrix(-18.62804 8.95452 -94.10486 -195.76596 28.7 66)"/><ellipse fill="#ccc7db" cx="54" cy="1" rx="28" ry="16"/><ellipse fill="#231f1b" rx="1" ry="1" transform="matrix(12.83563 -10.1734 12.38397 15.62468 155 69.8)"/><ellipse cx="130" cy="116" rx="21" ry="7"/></g></svg>