<svg xmlns="http://www.w3.org/2000/svg" viewBox="0 0 2560 1440"><filter id="b"><feGaussianBlur stdDeviation="12" /></filter><path fill="#2f4d6b" d="M0 0h2560v1440H0z"/><g filter="url(#b)" transform="matrix(10 0 0 10 5 5)" fill-opacity=".5"><ellipse fill="#ffe8dc" rx="1" ry="1" transform="rotate(179.8 53 16.7) scale(28.5508 50.12588)"/><ellipse fill="#0bb2ec" rx="1" ry="1" transform="matrix(-79.81547 7.81856 -1.5308 -15.62718 130.2 101.9)"/><ellipse fill="#000023" rx="1" ry="1" transform="matrix(47.23671 22.94647 -67.38076 138.70742 12 11.4)"/><ellipse fill="#00152c" rx="1" ry="1" transform="matrix(111.17345 164.2025 -35.04644 23.72822 234.2 44.7)"/><ellipse fill="#fff9e3" cx="104" cy="31" rx="18" ry="24"/><ellipse fill="#003875" rx="1" ry="1" transform="matrix(-37.24847 -7.02798 11.21155 -59.4215 33.8 105)"/><ellipse fill="#773042" cx="139" cy="17" rx="18" ry="31"/><ellipse fill="#3699c3" cx="102" cy="89" rx="27" ry="25"/></g></svg>