<svg xmlns="http://www.w3.org/2000/svg" viewBox="0 0 2560 1600"><filter id="b"><feGaussianBlur stdDeviation="12" /></filter><path fill="#2b3918" d="M0 0h2560v1600H0z"/><g filter="url(#b)" transform="matrix(10 0 0 10 5 5)" fill-opacity=".5"><ellipse fill="#b9ce6d" rx="1" ry="1" transform="matrix(-58.36406 4.08121 -1.17693 -16.83083 175.7 121.9)"/><path fill="#d0f099" d="M155.8 114.9l-14.4-37.3 16.8-6.5 14.4 37.3z"/><ellipse fill="#040a02" rx="1" ry="1" transform="matrix(-57.00015 -39.21231 35.4158 -51.48142 44.2 35.7)"/><ellipse fill="#a97d30" rx="1" ry="1" transform="matrix(11.51389 -24.3617 8.45346 3.9953 26.4 155.7)"/><path fill="#001b04" d="M140 121l-46-9 65-6z"/><ellipse fill="#f6e1ad" cx="211" cy="108" rx="7" ry="9"/><path fill="#c2ac75" d="M205 97l-2-31 12 33z"/><ellipse fill="#001104" rx="1" ry="1" transform="matrix(21.42206 21.87549 -23.30954 22.8264 129.6 0)"/></g></svg>