<svg xmlns="http://www.w3.org/2000/svg" viewBox="0 0 1024 640"><filter id="b"><feGaussianBlur stdDeviation="12" /></filter><path fill="#2b6347" d="M0 0h1024v640H0z"/><g filter="url(#b)" transform="matrix(4 0 0 4 2 2)" fill-opacity=".5"><ellipse fill="#b9da8f" rx="1" ry="1" transform="matrix(-22.56243 -42.22801 56.13354 -29.99215 169 61)"/><ellipse rx="1" ry="1" transform="matrix(-103.8835 232.88027 -45.32116 -20.21691 26.3 57.5)"/><ellipse fill="#f3ffda" rx="1" ry="1" transform="rotate(-19.8 296.7 -398) scale(32.89884 14.40626)"/><ellipse fill="#007065" rx="1" ry="1" transform="matrix(-6.47615 -39.33649 148.33018 -24.4203 190.9 131.1)"/><ellipse fill="#43c1a0" cx="173" cy="119" rx="24" ry="24"/><ellipse fill="#00030c" cx="14" cy="98" rx="34" ry="255"/><ellipse fill="#4b6a36" rx="1" ry="1" transform="matrix(9.9747 24.57163 -42.10581 17.09257 139.9 24.3)"/><ellipse fill="#73a06d" cx="96" cy="78" rx="36" ry="19"/></g></svg>