<svg xmlns="http://www.w3.org/2000/svg" viewBox="0 0 2023 1138"><filter id="b"><feGaussianBlur stdDeviation="12" /></filter><path fill="#e0c695" d="M0 0h2023v1137H0z"/><g filter="url(#b)" transform="translate(4 4) scale(7.90234)" fill-opacity=".5"><ellipse fill="#ad8250" rx="1" ry="1" transform="matrix(-13.65993 35.40054 -26.17718 -10.10093 220.8 95.3)"/><ellipse fill="#b78250" cx="185" cy="70" rx="22" ry="25"/><path fill="#967542" d="M142 27h91v10h-91z"/><path fill="#1e3406" d="M209.1 75.2l-9.3 7.3 22.3 18.1-10-31z"/><ellipse fill="#f0daa6" rx="1" ry="1" transform="matrix(89.04163 -47.36333 32.8555 61.76733 53.1 68.3)"/><path fill="#905827" d="M173 123h24v10h-24z"/><ellipse fill="#b49696" rx="1" ry="1" transform="rotate(-87.7 129.7 -7) scale(20.76761 24.29352)"/><path fill="#fff1be" d="M234 114.9l-21.8 3-2.1-14.8 21.7-3z"/></g></svg>