<svg xmlns="http://www.w3.org/2000/svg" viewBox="0 0 1900 1150"><filter id="b"><feGaussianBlur stdDeviation="12" /></filter><path fill="#3a3239" d="M0 0h1900v1142H0z"/><g filter="url(#b)" transform="translate(3.7 3.7) scale(7.42188)" fill-opacity=".5"><ellipse fill="#f3e3eb" rx="1" ry="1" transform="matrix(51.47251 -13.2159 7.19142 28.00874 79.9 53.8)"/><ellipse rx="1" ry="1" transform="rotate(47.4 -28.4 300.8) scale(51.10936 200.88297)"/><ellipse fill="#bfbae0" cx="62" cy="54" rx="18" ry="42"/><ellipse fill="#030006" rx="1" ry="1" transform="matrix(4.80532 31.77372 -135.99059 20.56664 78 148.9)"/><path fill="#ffffe3" d="M109 43h24v26h-24z"/><path fill="#170b15" d="M110 58.4l-11.4 33L76 83.7l11.4-33z"/><path fill="#171218" d="M85 0h150v37H85z"/><path fill="#ffe0a5" d="M22.6 69.8l1.6 22-18.6 5.8-6-7.7z"/></g></svg>