<svg xmlns="http://www.w3.org/2000/svg" viewBox="0 0 1920 1080"><filter id="b"><feGaussianBlur stdDeviation="12" /></filter><path fill="#292a37" d="M0 0h1920v1080H0z"/><g filter="url(#b)" transform="matrix(7.5 0 0 7.5 3.8 3.8)" fill-opacity=".5"><ellipse fill="#f2cac8" cx="150" cy="67" rx="83" ry="26"/><ellipse fill="#f3a688" rx="1" ry="1" transform="rotate(-10.4 468.3 -471.3) scale(64.27339 15.23324)"/><ellipse fill="#000009" rx="1" ry="1" transform="matrix(-160.38214 27.1528 -5.9583 -35.19356 99.4 20.8)"/><ellipse rx="1" ry="1" transform="rotate(-5.6 1458.7 -849.9) scale(255 29.46709)"/><ellipse fill="#2ca9db" rx="1" ry="1" transform="matrix(21.30658 17.17088 -9.9821 12.38634 216.5 61.5)"/><ellipse fill="#474c63" cx="53" cy="82" rx="38" ry="28"/><ellipse fill="#19387d" rx="1" ry="1" transform="matrix(56.0347 -9.377 1.76468 10.54532 182 87.7)"/><ellipse fill="#fff7c3" rx="1" ry="1" transform="matrix(.4542 11.6717 -26.80188 1.04299 125.5 74.9)"/></g></svg>