<svg xmlns="http://www.w3.org/2000/svg" viewBox="0 0 2560 1440"><filter id="b"><feGaussianBlur stdDeviation="12" /></filter><path fill="#745453" d="M0 0h2560v1440H0z"/><g filter="url(#b)" transform="matrix(10 0 0 10 5 5)" fill-opacity=".5"><ellipse fill="#ffc998" rx="1" ry="1" transform="matrix(128.00462 134.8349 -22.5293 21.38804 123.4 85)"/><ellipse rx="1" ry="1" transform="matrix(32.24468 -41.21982 179.05823 140.07037 200.8 15.2)"/><ellipse fill="#0d9ccc" rx="1" ry="1" transform="matrix(-10.78056 25.77177 -119.80452 -50.11532 101.6 127.4)"/><path fill="#290000" d="M88.9 48l-4.3 26.6L43.1 68l4.3-26.6z"/><ellipse fill="#fff" cx="68" cy="27" rx="24" ry="15"/><ellipse fill="#c11e18" rx="1" ry="1" transform="matrix(115.32872 84.71736 -11.64283 15.84979 171 69.4)"/><ellipse cx="230" cy="8" rx="94" ry="53"/><ellipse fill="#dcf5f4" rx="1" ry="1" transform="matrix(3.55065 -11.1066 45.27705 14.47454 81.2 92.5)"/></g></svg>