<svg xmlns="http://www.w3.org/2000/svg" viewBox="0 0 1920 1080"><filter id="b"><feGaussianBlur stdDeviation="12" /></filter><path fill="#8a9899" d="M0 0h1920v1080H0z"/><g filter="url(#b)" transform="matrix(7.5 0 0 7.5 3.8 3.8)" fill-opacity=".5"><ellipse fill="#201d11" rx="1" ry="1" transform="matrix(-98.93608 18.28257 -10.85851 -58.76083 130.5 132)"/><ellipse fill="#fff" cx="41" cy="33" rx="55" ry="55"/><ellipse fill="#d0f4ff" rx="1" ry="1" transform="matrix(-11.07734 -77.198 30.2408 -4.33933 237.2 33.3)"/><ellipse fill="#c9d4c8" rx="1" ry="1" transform="matrix(46.24334 44.5001 -8.23515 8.55776 128.1 89.2)"/><ellipse fill="#020000" rx="1" ry="1" transform="matrix(-53.51997 -7.64022 4.12176 -28.87309 108 140)"/><ellipse fill="#3c3d2c" cx="193" cy="63" rx="19" ry="34"/><ellipse fill="#b9daee" rx="1" ry="1" transform="matrix(-31.88485 -37.33237 26.99504 -23.05594 138.7 8.1)"/><ellipse fill="#e5f2fc" cx="47" cy="45" rx="37" ry="37"/></g></svg>