<svg xmlns="http://www.w3.org/2000/svg" viewBox="0 0 2560 1438"><filter id="b"><feGaussianBlur stdDeviation="12" /></filter><path fill="#26535d" d="M0 0h2560v1430H0z"/><g filter="url(#b)" transform="matrix(10 0 0 10 5 5)" fill-opacity=".5"><ellipse fill="#38dcc0" cx="207" cy="33" rx="90" ry="51"/><ellipse fill="#1c000f" cx="18" cy="115" rx="94" ry="94"/><ellipse fill="#200923" rx="1" ry="1" transform="matrix(-176.28453 -32.44982 5.53696 -30.07971 93 130)"/><ellipse fill="#355e5d" cx="117" cy="66" rx="53" ry="53"/><ellipse fill="#37c2b3" rx="1" ry="1" transform="rotate(-108 110.7 -62.3) scale(26.69705 44.64961)"/><path fill="#6ac686" d="M141.6 51.8l-.2 15-35-.6.2-15z"/><ellipse fill="#172956" rx="1" ry="1" transform="matrix(45.17765 26.40614 -15.58696 26.66737 43.8 25)"/><ellipse fill="#25787b" rx="1" ry="1" transform="matrix(-.14059 16.50946 -67.77668 -.57716 223 83.5)"/></g></svg>