<svg xmlns="http://www.w3.org/2000/svg" viewBox="0 0 1920 1200"><filter id="b"><feGaussianBlur stdDeviation="12" /></filter><path fill="#7f5a44" d="M0 0h1920v1200H0z"/><g filter="url(#b)" transform="matrix(7.5 0 0 7.5 3.8 3.8)" fill-opacity=".5"><ellipse fill="#ffffc1" cx="59" cy="70" rx="27" ry="66"/><ellipse fill="#ffffe8" rx="1" ry="1" transform="matrix(33.33998 17.29397 -7.38715 14.24123 239 63.6)"/><ellipse fill="#000019" rx="1" ry="1" transform="matrix(-22.2213 3.2115 -13.05727 -90.34711 172.4 31.2)"/><path fill="#ffff8c" d="M107 59h49v36h-49z"/><ellipse fill="#ffffeb" rx="1" ry="1" transform="matrix(-15.95784 15.09058 -21.73884 -22.98818 58.2 72.3)"/><ellipse fill="#120a21" rx="1" ry="1" transform="rotate(39.8 29.4 175.4) scale(38.9259 35.25417)"/><ellipse fill="#00001c" rx="1" ry="1" transform="matrix(12.04262 -27.39779 96.42102 42.3816 252.4 12.6)"/><ellipse fill="#ff9927" rx="1" ry="1" transform="matrix(4.7352 16.41797 -52.50272 15.1426 33.2 128.5)"/></g></svg>