<svg xmlns="http://www.w3.org/2000/svg" viewBox="0 0 3840 2400"><filter id="b"><feGaussianBlur stdDeviation="12" /></filter><path fill="#35532f" d="M0 0h3840v2400H0z"/><g filter="url(#b)" transform="matrix(15 0 0 15 7.5 7.5)" fill-opacity=".5"><ellipse fill="#d3ff8b" rx="1" ry="1" transform="matrix(-51.84309 52.32068 -19.34336 -19.16679 225.3 30.8)"/><ellipse fill="#8cd86e" rx="1" ry="1" transform="matrix(15.11104 -12.19307 32.26791 39.99006 44.4 44.3)"/><ellipse fill="#000005" cx="27" cy="157" rx="103" ry="60"/><ellipse rx="1" ry="1" transform="matrix(30.34722 -23.32086 15.16814 19.73816 227.8 154)"/><ellipse fill="#00160f" cx="124" cy="10" rx="58" ry="58"/><ellipse fill="#010506" rx="1" ry="1" transform="matrix(76.17624 -42.39915 7.96149 14.30397 218.1 92.4)"/><ellipse fill="#97d76b" cx="231" cy="19" rx="40" ry="40"/><ellipse fill="#90d064" rx="1" ry="1" transform="matrix(1.48046 -10.66912 20.48374 2.84235 241.2 111.6)"/></g></svg>