<svg xmlns="http://www.w3.org/2000/svg" viewBox="0 0 1920 1080"><filter id="b"><feGaussianBlur stdDeviation="12" /></filter><path fill="#533f3e" d="M0 0h1920v1080H0z"/><g filter="url(#b)" transform="matrix(7.5 0 0 7.5 3.8 3.8)" fill-opacity=".5"><ellipse fill="#b68d66" cx="76" cy="124" rx="100" ry="39"/><ellipse fill="#300" rx="1" ry="1" transform="matrix(-70.77583 -9.69508 4.87452 -35.5849 217.2 108.2)"/><ellipse fill="#151925" rx="1" ry="1" transform="matrix(88.1501 -67.85715 23.8753 31.0153 152 15.4)"/><ellipse fill="#e8bc98" cx="203" cy="45" rx="14" ry="20"/><path fill="#ffffc8" d="M111 88h18v26h-18z"/><ellipse fill="#537591" rx="1" ry="1" transform="matrix(44.6528 -16.3406 7.0966 19.39238 71.7 12.6)"/><ellipse fill="#2c2f00" rx="1" ry="1" transform="matrix(31.77288 -11.42678 3.81712 10.61375 86.2 125.8)"/><ellipse fill="#6571c9" rx="1" ry="1" transform="rotate(-178.8 .5 48.7) scale(92.83933 10.09282)"/></g></svg>