<svg xmlns="http://www.w3.org/2000/svg" viewBox="0 0 1920 1080"><filter id="b"><feGaussianBlur stdDeviation="12" /></filter><path fill="#344341" d="M0 0h1920v1080H0z"/><g filter="url(#b)" transform="matrix(7.5 0 0 7.5 3.8 3.8)" fill-opacity=".5"><ellipse fill="#b6cebe" rx="1" ry="1" transform="matrix(30.07874 -4.5992 2.45233 16.03823 83.3 26.2)"/><ellipse rx="1" ry="1" transform="matrix(-13.70491 15.21365 -32.97034 -29.70066 136 66.1)"/><ellipse fill="#8ca69a" rx="1" ry="1" transform="matrix(-29.5578 6.99493 -3.27103 -13.82208 159.9 29.8)"/><path fill="#90a794" d="M87 56l7 43 73 11z"/><ellipse fill="#0d1b20" rx="1" ry="1" transform="matrix(-62.48869 34.78076 -14.55927 -26.15785 219.3 69.7)"/><ellipse cx="133" cy="67" rx="19" ry="20"/><ellipse fill="#0e1e24" rx="1" ry="1" transform="matrix(-52.84817 17.51275 -4.6899 -14.1527 18.8 60)"/><ellipse fill="#7f9288" rx="1" ry="1" transform="matrix(-63.8371 3.52512 -.3478 -6.2984 94 19.5)"/></g></svg>