<svg xmlns="http://www.w3.org/2000/svg" viewBox="0 0 1920 1200"><filter id="b"><feGaussianBlur stdDeviation="12" /></filter><path fill="#e1d0c9" d="M0 0h1920v1200H0z"/><g filter="url(#b)" transform="matrix(7.5 0 0 7.5 3.8 3.8)" fill-opacity=".5"><ellipse fill="#924634" rx="1" ry="1" transform="matrix(37.1517 19.17542 -35.78338 69.32903 119.6 111.1)"/><ellipse fill="#fff" rx="1" ry="1" transform="matrix(66.10409 -36.49142 121.46475 220.03302 224.1 62.8)"/><path fill="#785042" d="M10 155l139-29 17 49z"/><ellipse fill="#fff" cx="6" cy="36" rx="21" ry="115"/><ellipse fill="#a75b5d" rx="1" ry="1" transform="matrix(18.60178 10.35177 -18.21057 32.72378 148.3 74)"/><path fill="#fff" d="M150.5 51.1l11.7 2.5-6.7 31.3-11.7-2.5z"/><ellipse fill="#cbaf97" cx="62" cy="123" rx="44" ry="44"/><ellipse fill="#7e151b" rx="1" ry="1" transform="matrix(24.48199 -17.39844 2.12526 2.99053 186.3 96.8)"/></g></svg>