<svg xmlns="http://www.w3.org/2000/svg" viewBox="0 0 1920 1080"><filter id="b"><feGaussianBlur stdDeviation="12" /></filter><path fill="#374e45" d="M0 0h1920v1080H0z"/><g filter="url(#b)" transform="matrix(7.5 0 0 7.5 3.8 3.8)" fill-opacity=".5"><ellipse fill="#aed4c8" rx="1" ry="1" transform="matrix(-22.05616 42.3695 -44.93954 -23.39405 171.6 9.3)"/><ellipse fill="#000202" rx="1" ry="1" transform="matrix(16.32211 42.08092 -91.88795 35.64099 235.6 106)"/><ellipse fill="#142218" cx="6" cy="89" rx="75" ry="75"/><ellipse fill="#6a8c75" rx="1" ry="1" transform="rotate(23.8 -151.2 340) scale(28.85524 56.3085)"/><path fill="#f5fff9" d="M155 14h47v21h-47z"/><ellipse fill="#689c8d" cx="6" cy="139" rx="17" ry="16"/><path fill="#577c71" d="M88-16l113 75-41 23z"/><ellipse fill="#244c4c" rx="1" ry="1" transform="rotate(-90.3 91.7 -89) scale(6.30914 66.87664)"/></g></svg>