<svg xmlns="http://www.w3.org/2000/svg" viewBox="0 0 1920 1080"><filter id="b"><feGaussianBlur stdDeviation="12" /></filter><path fill="#465657" d="M0 0h1920v1080H0z"/><g filter="url(#b)" transform="matrix(7.5 0 0 7.5 3.8 3.8)" fill-opacity=".5"><ellipse fill="#ebffd9" cx="130" rx="50" ry="71"/><ellipse fill="#ffffd4" rx="1" ry="1" transform="matrix(.86077 8.47412 -58.60186 5.95256 67 16.6)"/><ellipse fill="#000034" cx="222" cy="41" rx="43" ry="43"/><ellipse fill="#0e160a" rx="1" ry="1" transform="matrix(-254.76546 -10.93426 .97342 -22.68053 132 135.3)"/><ellipse fill="#000a43" rx="1" ry="1" transform="matrix(33.72334 1.4771 -.94874 21.66044 72 54.5)"/><ellipse fill="#000531" cx="13" cy="51" rx="50" ry="19"/><ellipse fill="#6c8380" rx="1" ry="1" transform="matrix(-8.10413 -21.76188 45.29287 -16.86708 111.2 97.4)"/><ellipse fill="#cad1a6" rx="1" ry="1" transform="rotate(163 40 10.4) scale(26.45416 21.9513)"/></g></svg>