<svg xmlns="http://www.w3.org/2000/svg" viewBox="0 0 1920 1080"><filter id="b"><feGaussianBlur stdDeviation="12" /></filter><path fill="#48436e" d="M0 0h1920v1080H0z"/><g filter="url(#b)" transform="matrix(7.5 0 0 7.5 3.8 3.8)" fill-opacity=".5"><ellipse fill="#d2c7ff" rx="1" ry="1" transform="matrix(37.73384 -3.86838 6.93861 67.68213 148.4 56.3)"/><ellipse rx="1" ry="1" transform="rotate(144 -.5 56.8) scale(48.53896 94.98966)"/><ellipse rx="1" ry="1" transform="rotate(101.8 18.7 15.2) scale(25.07598 63.13857)"/><ellipse rx="1" ry="1" transform="matrix(6.1325 22.425 -42.21133 11.5434 189 139.5)"/><ellipse fill="#9283d9" cx="180" cy="38" rx="48" ry="48"/><ellipse cx="239" cy="139" rx="89" ry="12"/><ellipse fill="#6b6dc6" rx="1" ry="1" transform="matrix(-60.14653 50.24843 -9.46967 -11.33504 105.8 23.7)"/><path fill="#9b97e0" d="M178.4 63l-50.2 124.3-30.6-12.4 50.2-124.2z"/></g></svg>