<svg xmlns="http://www.w3.org/2000/svg" viewBox="0 0 1920 1080"><filter id="b"><feGaussianBlur stdDeviation="12" /></filter><path fill="#324330" d="M0 0h1920v1080H0z"/><g filter="url(#b)" transform="matrix(7.5 0 0 7.5 3.8 3.8)" fill-opacity=".5"><path fill="#81a18e" d="M175 29.7L91.7 45.9 77-29.7l83.5-16.2z"/><ellipse rx="1" ry="1" transform="matrix(38.70076 21.35944 -118.025 213.84729 222 108.6)"/><ellipse fill="#6f918f" cx="91" cy="112" rx="31" ry="14"/><ellipse fill="#505c4e" rx="1" ry="1" transform="matrix(-14.87515 -71.36538 121.7259 -25.37212 0 55)"/><ellipse fill="#629683" rx="1" ry="1" transform="matrix(-11.36933 6.1124 -17.3726 -32.31378 186.1 47.7)"/><ellipse fill="#040f01" cx="190" rx="57" ry="13"/><ellipse fill="#13260f" rx="1" ry="1" transform="rotate(-40.5 183.2 5.9) scale(17.79697 63.90209)"/><ellipse fill="#081803" rx="1" ry="1" transform="rotate(165.8 76.1 75.2) scale(119.82404 25.47244)"/></g></svg>