<svg xmlns="http://www.w3.org/2000/svg" viewBox="0 0 1920 1201"><filter id="b"><feGaussianBlur stdDeviation="12" /></filter><path fill="#53595c" d="M0 0h1920v1200H0z"/><g filter="url(#b)" transform="matrix(7.5 0 0 7.5 3.8 3.8)" fill-opacity=".5"><ellipse fill="#fff" rx="1" ry="1" transform="matrix(34.12084 -2.0756 4.35 71.50968 76.3 41.5)"/><ellipse fill="#d7dfe7" rx="1" ry="1" transform="matrix(-47.92193 21.2614 -15.86552 -35.75995 118.8 21.3)"/><ellipse cx="13" cy="102" rx="31" ry="92"/><ellipse fill="#050010" rx="1" ry="1" transform="matrix(20.9803 -146.66517 56.64554 8.10308 221.2 88.8)"/><path fill="#c0ffff" d="M85 117h29v31H85z"/><path fill="#0d192c" d="M133.7 32.3l-2.4 35-23-1.6 2.4-35z"/><path fill="#edeee3" d="M23 19l85 63-69-92z"/><ellipse fill="#0d1a1f" cx="46" cy="154" rx="34" ry="34"/></g></svg>