<svg xmlns="http://www.w3.org/2000/svg" viewBox="0 0 1648 1024"><filter id="b"><feGaussianBlur stdDeviation="12" /></filter><path fill="#2d280d" d="M0 0h1648v1023H0z"/><g filter="url(#b)" transform="translate(3.2 3.2) scale(6.4375)" fill-opacity=".5"><ellipse fill="#888126" rx="1" ry="1" transform="matrix(-5.78532 7.15653 -21.77751 -17.60488 73.6 109)"/><ellipse fill="#6d8a30" cx="126" cy="17" rx="16" ry="16"/><path fill="#78684f" d="M162.6 107.3l-22.9-4-23 27.9 43.7-9z"/><ellipse rx="1" ry="1" transform="rotate(163.2 109.6 24.7) scale(16.92876 42.09068)"/><path fill="#806747" d="M77 54l27-14-52-17z"/><ellipse fill="#050400" rx="1" ry="1" transform="matrix(22.69266 -4.24682 10.94248 58.47065 13.1 133)"/><path fill="#636c5d" d="M178.8-5.2L149 77.4l33.8-56.3 8-37.1z"/><ellipse fill="#686915" rx="1" ry="1" transform="matrix(7.87685 -7.50103 21.5091 22.58678 42 71)"/></g></svg>