<svg xmlns="http://www.w3.org/2000/svg" viewBox="0 0 1920 1080"><filter id="b"><feGaussianBlur stdDeviation="12" /></filter><path fill="#383b32" d="M0 0h1920v1080H0z"/><g filter="url(#b)" transform="matrix(7.5 0 0 7.5 3.8 3.8)" fill-opacity=".5"><ellipse fill="#e5f4c8" rx="1" ry="1" transform="matrix(10.47 3.63103 -10.84794 31.27981 227.1 109.4)"/><ellipse fill="#c6d0af" rx="1" ry="1" transform="matrix(-9.44544 -10.94265 28.92296 -24.96563 255 30.3)"/><ellipse fill="#0e0d06" cx="25" cy="59" rx="74" ry="122"/><path fill="#959975" d="M159 80h17v62h-17z"/><path fill="#dee8b4" d="M282.1 79.6l-59.4 33-6.8-12.2 59.4-33z"/><ellipse fill="#777d6c" rx="1" ry="1" transform="matrix(-27.21395 16.80768 -7.26741 -11.76695 231 30.4)"/><ellipse fill="#5f665a" cx="205" cy="128" rx="35" ry="13"/><ellipse fill="#60635b" rx="1" ry="1" transform="matrix(53.70701 -56.39792 5.4785 5.2171 144.9 84)"/></g></svg>