<svg xmlns="http://www.w3.org/2000/svg" viewBox="0 0 1920 1080"><filter id="b"><feGaussianBlur stdDeviation="12" /></filter><path fill="#f0eeee" d="M0 0h1920v1080H0z"/><g filter="url(#b)" transform="matrix(7.5 0 0 7.5 3.8 3.8)" fill-opacity=".5"><ellipse fill="#7e8180" rx="1" ry="1" transform="rotate(-89.1 63.8 -17.5) scale(10.95447 133.14191)"/><path fill="#373838" d="M209 51l-41-23 30 38z"/><path fill="#3c3f3f" d="M87.7 54.8L36 69.8 25 92.9l38.6-27z"/><ellipse fill="#fffefe" rx="1" ry="1" transform="matrix(-44.4743 -4.29034 1.15748 -11.99861 110.1 34)"/><ellipse fill="#fff" cx="87" cy="110" rx="51" ry="51"/><ellipse fill="#555" rx="1" ry="1" transform="rotate(84.4 44.7 107.6) scale(1.71693 65.07905)"/><ellipse fill="#fff" rx="1" ry="1" transform="matrix(12.17996 -34.58482 83.85496 29.53174 182.7 100.1)"/><path fill="#939694" d="M104 10h18v21h-18z"/></g></svg>