<svg xmlns="http://www.w3.org/2000/svg" viewBox="0 0 1920 1080"><filter id="b"><feGaussianBlur stdDeviation="12" /></filter><path fill="#f5f5f5" d="M0 0h1920v1080H0z"/><g filter="url(#b)" transform="matrix(7.5 0 0 7.5 3.8 3.8)" fill-opacity=".5"><path fill="#3f3f3f" d="M143.7 111.1l9.6 28 .8 1.1 16.4-3.1z"/><path d="M92 105h5v35h-5z"/><path fill="#3d3d3d" d="M89.6 139.7l-13-1.8 24-23.6 3.6-2.7z"/><path fill="#858585" d="M172 125l-19-17-6 30z"/><ellipse fill="#373737" cx="92" cy="82" rx="1" ry="27"/><ellipse fill="#fff" rx="1" ry="1" transform="rotate(90.3 94.7 127.3) scale(178.04779 38.76204)"/><ellipse fill="#888" rx="1" ry="1" transform="rotate(1.5 -5303.5 7894.6) scale(57.97354 1)"/><ellipse fill="#151515" cx="46" cy="135" rx="22" ry="1"/></g></svg>