<svg xmlns="http://www.w3.org/2000/svg" viewBox="0 0 1920 1080"><filter id="b"><feGaussianBlur stdDeviation="12" /></filter><path fill="#8c6d5a" d="M0 0h1920v1080H0z"/><g filter="url(#b)" transform="matrix(7.5 0 0 7.5 3.8 3.8)" fill-opacity=".5"><ellipse fill="#ffffe3" rx="1" ry="1" transform="matrix(57.33739 -41.50535 18.93848 26.16248 193.1 64.8)"/><ellipse rx="1" ry="1" transform="matrix(88.69618 1.32716 -.8234 55.0287 52 124.4)"/><ellipse fill="#ffe6ad" cx="96" cy="11" rx="45" ry="56"/><ellipse fill="#000f24" rx="1" ry="1" transform="matrix(39.59826 9.80353 -7.05748 28.50643 244 120.7)"/><ellipse fill="#0e0000" rx="1" ry="1" transform="matrix(-25.74933 7.54228 -58.04404 -198.16222 11.5 100.7)"/><path fill="#1d0000" d="M96.5 39l2 37-19 1-2-37z"/><ellipse fill="#7b1800" rx="1" ry="1" transform="matrix(-12.28838 -9.6087 31.19126 -39.88994 140.1 56)"/><ellipse fill="#ffa53b" rx="1" ry="1" transform="matrix(-11.99687 -16.39234 10.4864 -7.67456 30.7 61.3)"/></g></svg>