<svg xmlns="http://www.w3.org/2000/svg" viewBox="0 0 1920 1080"><filter id="b"><feGaussianBlur stdDeviation="12" /></filter><path fill="#3a5b27" d="M0 0h1920v1080H0z"/><g filter="url(#b)" transform="matrix(7.5 0 0 7.5 3.8 3.8)" fill-opacity=".5"><ellipse fill="#e1ffa9" rx="1" ry="1" transform="matrix(-56.42228 4.67346 -2.29046 -27.65253 168.3 130.7)"/><ellipse fill="#021000" cx="37" cy="15" rx="92" ry="92"/><path fill="#f8ffd2" d="M157 71l18 68-43-54z"/><ellipse fill="#edf7c0" cx="202" cy="97" rx="5" ry="25"/><ellipse fill="#a9c258" rx="1" ry="1" transform="matrix(16.5476 9.69067 -5.33547 9.11075 118.8 51.6)"/><path fill="#043505" d="M152.2 109.1l-16.6 21.3L97.8 101l16.6-21.3z"/><path fill="#eeffad" d="M160 109l-40 25 81 3z"/><ellipse fill="#a6a744" rx="1" ry="1" transform="rotate(170.8 -5.3 69.6) scale(42.8819 15.8413)"/></g></svg>