<svg xmlns="http://www.w3.org/2000/svg" viewBox="0 0 1920 1080"><filter id="b"><feGaussianBlur stdDeviation="12" /></filter><path fill="#824a31" d="M0 0h1920v1080H0z"/><g filter="url(#b)" transform="matrix(7.5 0 0 7.5 3.8 3.8)" fill-opacity=".5"><ellipse fill="#f49838" cx="105" cy="80" rx="57" ry="57"/><ellipse fill="#00000d" cx="131" cy="61" rx="30" ry="16"/><path fill="#ffda4c" d="M192 18.4l43 37.4-19 21.8-43-37.4z"/><ellipse fill="#00155f" rx="1" ry="1" transform="rotate(176.3 16.4 3) scale(63.0775 32.08731)"/><ellipse fill="#00001a" rx="1" ry="1" transform="matrix(12.56707 -27.02467 40.23794 18.71153 16 122)"/><ellipse fill="#002" rx="1" ry="1" transform="matrix(-23.54435 -6.04516 5.1587 -20.09181 152.8 46.1)"/><ellipse fill="#000526" cx="235" rx="37" ry="37"/><ellipse fill="#000006" rx="1" ry="1" transform="rotate(-34.8 331.6 -312.5) scale(46.31785 26.94557)"/></g></svg>