<svg xmlns="http://www.w3.org/2000/svg" viewBox="0 0 1920 1080"><filter id="b"><feGaussianBlur stdDeviation="12" /></filter><path fill="#41484f" d="M0 0h1920v1080H0z"/><g filter="url(#b)" transform="matrix(7.5 0 0 7.5 3.8 3.8)" fill-opacity=".5"><ellipse fill="#ffd1cb" rx="1" ry="1" transform="matrix(-47.84301 -41.79926 19.0068 -21.75499 116.3 27.4)"/><ellipse rx="1" ry="1" transform="rotate(146.4 107.2 54.5) scale(44.44217 254.99998)"/><path fill="#fff4ff" d="M146.4 39.1l-39.1 50L52 159l95-89.4z"/><ellipse cx="234" cy="61" rx="45" ry="77"/><ellipse fill="#9bb5c7" cx="187" cy="80" rx="17" ry="21"/><path fill="#ffc8c2" d="M80 56.6l5.6-.2L137 8.1 78.4 18.6z"/><ellipse fill="#00060b" cx="121" rx="98" ry="6"/><ellipse fill="#5ba2bb" rx="1" ry="1" transform="matrix(20.73148 26.42945 -21.3581 16.75348 0 18.5)"/></g></svg>