<svg xmlns="http://www.w3.org/2000/svg" viewBox="0 0 1191 670"><filter id="b"><feGaussianBlur stdDeviation="12" /></filter><path fill="#3b2d38" d="M0 0h1191v669H0z"/><g filter="url(#b)" transform="translate(2.3 2.3) scale(4.65234)" fill-opacity=".5"><ellipse fill="#e98c58" rx="1" ry="1" transform="matrix(-23.29443 -4.02365 2.45248 -14.19832 150.5 111.3)"/><ellipse fill="#626a9d" cx="174" cy="53" rx="23" ry="23"/><ellipse fill="#5a577b" cx="71" cy="19" rx="49" ry="49"/><ellipse fill="#1d0c0e" rx="1" ry="1" transform="rotate(-62.5 139.9 19.3) scale(59.39861 96.47553)"/><ellipse fill="#1d0500" rx="1" ry="1" transform="matrix(81.35571 -3.80616 .7748 16.56123 201.8 137.6)"/><path fill="#ffe9df" d="M44.3 38.7l-3.8 3.8-6-.7 12-25.3z"/><path fill="#8c91b4" d="M105 12l20 3-36 52z"/><ellipse fill="#0d0e12" rx="1" ry="1" transform="matrix(33.45167 -59.12563 14.61924 8.27117 122.4 53)"/></g></svg>