<svg xmlns="http://www.w3.org/2000/svg" viewBox="0 0 1920 1080"><filter id="b"><feGaussianBlur stdDeviation="12" /></filter><path fill="#5e859f" d="M0 0h1920v1080H0z"/><g filter="url(#b)" transform="matrix(7.5 0 0 7.5 3.8 3.8)" fill-opacity=".5"><ellipse fill="#a1d6df" cx="124" cy="61" rx="37" ry="37"/><ellipse fill="#308aff" cx="110" cy="110" rx="61" ry="19"/><path fill="#d0d6df" d="M67.4 15l-63 28-9.8-22 63-28z"/><ellipse fill="#306168" rx="1" ry="1" transform="matrix(-23.4927 -15.56904 51.8824 -78.28725 224.5 73.9)"/><path fill="#3c546f" d="M77 29L30 159-10 44z"/><ellipse fill="#bec8d9" rx="1" ry="1" transform="rotate(-137.6 65.2 55.1) scale(30.29631 17.89964)"/><path fill="#83c0c0" d="M201 104l24-32L93 88z"/><ellipse fill="#243c56" rx="1" ry="1" transform="matrix(-34.51459 -15.78089 4.71932 -10.3217 187 50.7)"/></g></svg>