<svg xmlns="http://www.w3.org/2000/svg" viewBox="0 0 1920 1080"><filter id="b"><feGaussianBlur stdDeviation="12" /></filter><path fill="#f3f0ec" d="M0 0h1920v1080H0z"/><g filter="url(#b)" transform="matrix(7.5 0 0 7.5 3.8 3.8)" fill-opacity=".5"><ellipse fill="#825921" rx="1" ry="1" transform="rotate(-86.6 122.7 -31.8) scale(31.12524 49.76226)"/><ellipse fill="#fff" rx="1" ry="1" transform="rotate(81 45.9 124.7) scale(22.37582 40.32571)"/><ellipse fill="#794801" rx="1" ry="1" transform="rotate(-61.7 152 -71.9) scale(11.35015 33.54808)"/><path fill="#361500" d="M137 99l-40 27 29-42z"/><path fill="#fff" d="M0 83h117v24H0zm271 73l-200 3L271 58z"/><path fill="#5d3d13" d="M150.4 95.1l38.6 38.2-20.9-37.2-30 33.6z"/><ellipse fill="#fff" cx="42" cy="53" rx="67" ry="67"/></g></svg>