<svg xmlns="http://www.w3.org/2000/svg" viewBox="0 0 2560 1440"><filter id="b"><feGaussianBlur stdDeviation="12" /></filter><path fill="#2e262f" d="M0 0h2560v1440H0z"/><g filter="url(#b)" transform="matrix(10 0 0 10 5 5)" fill-opacity=".5"><ellipse fill="#c49e8a" rx="1" ry="1" transform="matrix(-38.5802 -43.76556 32.35174 -28.5187 179.7 49.2)"/><ellipse fill="#fff" rx="1" ry="1" transform="rotate(-94.9 76.2 .2) scale(8.61667 33.91493)"/><ellipse cy="72" rx="85" ry="85"/><ellipse fill="#c4fe63" rx="1" ry="1" transform="rotate(159.3 83 47.6) scale(49.83622 13.49553)"/><ellipse fill="#8d1953" rx="1" ry="1" transform="rotate(61.8 47.3 144.4) scale(27.63555 57.54727)"/><ellipse fill="#2489e6" rx="1" ry="1" transform="rotate(157.4 97.5 64.4) scale(21.65622 18.4553)"/><ellipse cx="166" cy="135" rx="255" ry="24"/><path fill="#eef1fc" d="M104.2 83.3l13.6-21.7-96.4 23 51.5-.3z"/></g></svg>