<svg xmlns="http://www.w3.org/2000/svg" viewBox="0 0 2880 1800"><filter id="b"><feGaussianBlur stdDeviation="12" /></filter><path fill="#80807b" d="M0 0h2880v1800H0z"/><g filter="url(#b)" transform="translate(5.6 5.6) scale(11.25)" fill-opacity=".5"><ellipse fill="#d6e4ff" cx="185" cy="29" rx="59" ry="34"/><ellipse fill="#020000" rx="1" ry="1" transform="matrix(9.36598 15.69936 -45.94993 27.41298 103.3 76.2)"/><ellipse fill="#400200" rx="1" ry="1" transform="matrix(-27.9426 15.68624 -22.95173 -40.88496 173.2 102.4)"/><ellipse fill="#d1e5ff" rx="1" ry="1" transform="rotate(-120.5 38 31.9) scale(22.02681 67.74978)"/><ellipse fill="#ccdafe" rx="1" ry="1" transform="rotate(34.5 11 380.8) scale(42.5007 25.62521)"/><ellipse fill="#1d49a7" rx="1" ry="1" transform="matrix(-139.96852 56.33952 -15.26915 -37.9343 49.8 1.6)"/><path fill="#0c0000" d="M91.5 91.2l-61.2 53.2-11.8-13.6 61.2-53.2z"/><ellipse fill="#bdbb3c" cx="99" cy="153" rx="96" ry="31"/></g></svg>